# xmcd
#
# Track frame offsets:
#	150
#	14082
#	30242
#	54613
#	83600
#	102963
#	122007
#	141366
#
# Disc length: 2162 seconds
#
# Revision: 0
# Processed by: cddbd v1.5PL3 Copyright (c) Steve Scherf et al.
# Submitted via: MusicManager 7.0.3.0 
#
DISCID=62087008
DTITLE=Golden Earring - Switch
DYEAR=1900
DGENRE=rock
TTITLE0=Intro: Plus Minus Absurdio
TTITLE1=Love is a Rodeo
TTITLE2=The Switch
TTITLE3=Kill me (Ce Soir)
TTITLE4=Tons of time
TTITLE5=Daddy's gonna save my soul
TTITLE6=Troubles and Hassles
TTITLE7=The Lonesome D.J.
EXTD=
EXTT0=
EXTT1=
EXTT2=
EXTT3=
EXTT4=
EXTT5=
EXTT6=
EXTT7=
PLAYORDER=
